<svg width="24" height="24" viewBox="0 0 24 24" fill="none" xmlns="http://www.w3.org/2000/svg">
<path d="M18 21H6C5.20435 21 4.44129 20.6839 3.87868 20.1213C3.31607 19.5587 3 18.7956 3 18V6C3 5.20435 3.31607 4.44129 3.87868 3.87868C4.44129 3.31607 5.20435 3 6 3H10C10.2652 3 10.5196 3.10536 10.7071 3.29289C10.8946 3.48043 11 3.73478 11 4C11 4.26522 10.8946 4.51957 10.7071 4.70711C10.5196 4.89464 10.2652 5 10 5H6C5.73478 5 5.48043 5.10536 5.29289 5.29289C5.10536 5.48043 5 5.73478 5 6V18C5 18.2652 5.10536 18.5196 5.29289 18.7071C5.48043 18.8946 5.73478 19 6 19H18C18.2652 19 18.5196 18.8946 18.7071 18.7071C18.8946 18.5196 19 18.2652 19 18V14C19 13.7348 19.1054 13.4804 19.2929 13.2929C19.4804 13.1054 19.7348 13 20 13C20.2652 13 20.5196 13.1054 20.7071 13.2929C20.8946 13.4804 21 13.7348 21 14V18C21 18.7956 20.6839 19.5587 20.1213 20.1213C19.5587 20.6839 18.7956 21 18 21Z" fill="#A3A3A3"/>
<path d="M20.9999 4.04997V9.04997C20.9989 9.24739 20.9395 9.44011 20.8292 9.60383C20.7188 9.76755 20.5625 9.89495 20.3799 9.96997C20.2612 10.0259 20.1311 10.0533 19.9999 10.05C19.8683 10.0507 19.7378 10.0255 19.616 9.97574C19.4941 9.92597 19.3833 9.85265 19.2899 9.75997L17.4499 7.99997L12.6599 12.79C12.5669 12.8837 12.4563 12.9581 12.3345 13.0089C12.2126 13.0596 12.0819 13.0858 11.9499 13.0858C11.8179 13.0858 11.6872 13.0596 11.5653 13.0089C11.4435 12.9581 11.3329 12.8837 11.2399 12.79C11.1462 12.697 11.0718 12.5864 11.021 12.4645C10.9702 12.3427 10.9441 12.212 10.9441 12.08C10.9441 11.948 10.9702 11.8172 11.021 11.6954C11.0718 11.5735 11.1462 11.4629 11.2399 11.37L15.9999 6.54997L14.2399 4.75997C14.0961 4.62272 13.9964 4.44571 13.9537 4.25156C13.9109 4.05741 13.927 3.85493 13.9999 3.66997C14.0796 3.47419 14.2194 3.30872 14.3991 3.19733C14.5787 3.08594 14.7891 3.03434 14.9999 3.04997H19.9999C20.0826 3.03559 20.1672 3.03559 20.2499 3.04997C20.2961 3.04106 20.3436 3.04106 20.3899 3.04997C20.5099 3.09723 20.6188 3.16868 20.71 3.25986C20.8012 3.35103 20.8726 3.46 20.9199 3.57997C20.9288 3.62621 20.9288 3.67372 20.9199 3.71997C20.9721 3.82215 20.9995 3.93521 20.9999 4.04997Z" fill="#A3A3A3"/>
<path d="M9.37216 13.0909C9.33381 12.767 9.17827 12.5156 8.90554 12.3366C8.63281 12.1577 8.2983 12.0682 7.90199 12.0682C7.61222 12.0682 7.35866 12.1151 7.14134 12.2088C6.92614 12.3026 6.75781 12.4315 6.63636 12.5955C6.51705 12.7596 6.45739 12.946 6.45739 13.1548C6.45739 13.3295 6.49893 13.4798 6.58203 13.6055C6.66726 13.729 6.77592 13.8324 6.90803 13.9155C7.04013 13.9964 7.17862 14.0636 7.32351 14.1168C7.46839 14.168 7.60156 14.2095 7.72301 14.2415L8.38778 14.4205C8.55824 14.4652 8.74787 14.527 8.95668 14.6058C9.16761 14.6847 9.36896 14.7923 9.56072 14.9286C9.75462 15.0629 9.91442 15.2354 10.0401 15.4464C10.1658 15.6573 10.2287 15.9162 10.2287 16.223C10.2287 16.5767 10.136 16.8963 9.95064 17.1818C9.7674 17.4673 9.49893 17.6942 9.14524 17.8626C8.79368 18.0309 8.36648 18.1151 7.86364 18.1151C7.39489 18.1151 6.98899 18.0394 6.64595 17.8881C6.30504 17.7369 6.03658 17.5259 5.84055 17.2553C5.64666 16.9847 5.53693 16.6705 5.51136 16.3125H6.32955C6.35085 16.5597 6.43395 16.7642 6.57884 16.9261C6.72585 17.0859 6.91122 17.2053 7.13494 17.2841C7.3608 17.3608 7.60369 17.3991 7.86364 17.3991C8.16619 17.3991 8.43786 17.3501 8.67862 17.2521C8.91939 17.152 9.11009 17.0135 9.25071 16.8366C9.39134 16.6577 9.46165 16.4489 9.46165 16.2102C9.46165 15.9929 9.40092 15.8161 9.27947 15.6797C9.15803 15.5433 8.99822 15.4325 8.80007 15.3473C8.60192 15.2621 8.38778 15.1875 8.15767 15.1236L7.35227 14.8935C6.84091 14.7464 6.43608 14.5366 6.13778 14.2638C5.83949 13.9911 5.69034 13.6342 5.69034 13.1932C5.69034 12.8267 5.78942 12.5071 5.98757 12.2344C6.18786 11.9595 6.45632 11.7464 6.79297 11.5952C7.13175 11.4418 7.50994 11.3651 7.92756 11.3651C8.34943 11.3651 8.72443 11.4407 9.05256 11.592C9.38068 11.7411 9.64063 11.9457 9.83239 12.2056C10.0263 12.4656 10.1286 12.7607 10.1392 13.0909H9.37216Z" fill="#A3A3A3"/>
</svg>
