<svg width="18" height="18" viewBox="0 0 18 18" fill="none" xmlns="http://www.w3.org/2000/svg">
<g clip-path="url(#clip0_403_2)">
<path d="M4.5 2.25C4.5 1.00898 5.50898 0 6.75 0H12.375V4.5C12.375 5.12227 12.8777 5.625 13.5 5.625H18V15.75C18 16.991 16.991 18 15.75 18H6.75C5.50898 18 4.5 16.991 4.5 15.75V11.8125H10.6207L9.24961 13.1836C8.91914 13.5141 8.91914 14.0484 9.24961 14.3754C9.58008 14.7023 10.1145 14.7059 10.4414 14.3754L13.2539 11.5629C13.5844 11.2324 13.5844 10.698 13.2539 10.3711L10.4414 7.55859C10.1109 7.22813 9.57656 7.22813 9.24961 7.55859C8.92266 7.88906 8.91914 8.42344 9.24961 8.75039L10.6207 10.1215H4.5V2.25ZM4.5 10.125V11.8125H0.84375C0.376172 11.8125 0 11.4363 0 10.9688C0 10.5012 0.376172 10.125 0.84375 10.125H4.5ZM18 4.5H13.5V0L18 4.5Z" fill="#A3A3A3"/>
</g>
<defs>
<clipPath id="clip0_403_2">
<rect width="18" height="18" fill="white"/>
</clipPath>
</defs>
</svg>
