<svg width="15" height="15" viewBox="0 0 15 15" fill="none" xmlns="http://www.w3.org/2000/svg">
<g clip-path="url(#clip0_417_12)">
<path d="M14.1129 7.41935C14.1129 11.2048 11.0436 14.2742 7.25807 14.2742C3.47258 14.2742 0.403229 11.2048 0.403229 7.41935C0.403229 3.63387 3.47258 0.564514 7.25807 0.564514" stroke="#d1d1d1" stroke-width="0.645161" stroke-miterlimit="10"/>
<path d="M7.17742 12.2581C9.84977 12.2581 12.0161 10.0917 12.0161 7.41935C12.0161 4.74701 9.84977 2.58064 7.17742 2.58064C4.50508 2.58064 2.33871 4.74701 2.33871 7.41935C2.33871 10.0917 4.50508 12.2581 7.17742 12.2581Z" stroke="#d1d1d1" stroke-width="0.645161"/>
<path d="M13.3065 7.74194L14.1129 6.12903L14.9194 7.74194H13.3065Z" fill="#d1d1d1"/>
</g>
<path d="M5.23295 4.90909V10H4.61648V4.90909H5.23295ZM8.04004 10H6.46902V4.90909H8.10964C8.60349 4.90909 9.02607 5.01101 9.3774 5.21484C9.72872 5.41702 9.99802 5.70786 10.1853 6.08736C10.3725 6.4652 10.4662 6.91761 10.4662 7.4446C10.4662 7.97491 10.3717 8.43146 10.1828 8.81428C9.99387 9.19543 9.71878 9.48875 9.35751 9.69425C8.99624 9.89808 8.55708 10 8.04004 10ZM7.08549 9.45312H8.00027C8.42119 9.45312 8.77003 9.37192 9.04679 9.20952C9.32354 9.04711 9.52986 8.81593 9.66575 8.51598C9.80164 8.21603 9.86958 7.8589 9.86958 7.4446C9.86958 7.03362 9.80247 6.67981 9.66824 6.38317C9.534 6.08487 9.33348 5.85618 9.06667 5.69709C8.79986 5.53634 8.4676 5.45597 8.06987 5.45597H7.08549V9.45312Z" fill="#d1d1d1"/>
<defs>
<clipPath id="clip0_417_12">
<rect width="15" height="15" fill="white"/>
</clipPath>
</defs>
</svg>
