<svg width="713" height="730" viewBox="0 0 713 730" fill="none" xmlns="http://www.w3.org/2000/svg">
<mask id="mask0_214_11" style="mask-type:alpha" maskUnits="userSpaceOnUse" x="0" y="0" width="713" height="730">
<path d="M0 301.096L282.27 147.957L391.173 185.954V202.65L282.27 168.683L16.1158 313.762V611.404L98.6479 567.074L104.997 583.77L25.8829 628.099L314.99 709.85L696.396 508.927V437.539L338.919 628.099V607.374L696.396 412.784V336.214L339.408 528.502V508.927L696.396 314.338V230.284L339.408 427.752V408.754L696.396 210.71V127.808L310.595 344.274L164.576 299.369L16.1158 379.393V359.819L164.576 278.644L310.595 325.276L672.955 119.172L373.592 20.7256L256.387 93.8407V70.2366L373.592 0L713 112.839V523.32L314.99 730L0 639.614V301.096Z" fill="#D9D9D9"/>
</mask>
<g mask="url(#mask0_214_11)">
<path d="M-441.643 462.5L1156.29 435V1397H55.4799L-441.643 462.5Z" fill="#89805E"/>
<rect x="-124.143" y="-513" width="1053.57" height="970" fill="#A56666"/>
</g>
</svg>
