<svg width="24" height="24" viewBox="0 0 24 24" fill="none" xmlns="http://www.w3.org/2000/svg">
<path d="M18 21H6C5.20435 21 4.44129 20.6839 3.87868 20.1213C3.31607 19.5587 3 18.7956 3 18V6C3 5.20435 3.31607 4.44129 3.87868 3.87868C4.44129 3.31607 5.20435 3 6 3H10C10.2652 3 10.5196 3.10536 10.7071 3.29289C10.8946 3.48043 11 3.73478 11 4C11 4.26522 10.8946 4.51957 10.7071 4.70711C10.5196 4.89464 10.2652 5 10 5H6C5.73478 5 5.48043 5.10536 5.29289 5.29289C5.10536 5.48043 5 5.73478 5 6V18C5 18.2652 5.10536 18.5196 5.29289 18.7071C5.48043 18.8946 5.73478 19 6 19H18C18.2652 19 18.5196 18.8946 18.7071 18.7071C18.8946 18.5196 19 18.2652 19 18V14C19 13.7348 19.1054 13.4804 19.2929 13.2929C19.4804 13.1054 19.7348 13 20 13C20.2652 13 20.5196 13.1054 20.7071 13.2929C20.8946 13.4804 21 13.7348 21 14V18C21 18.7956 20.6839 19.5587 20.1213 20.1213C19.5587 20.6839 18.7956 21 18 21Z" fill="#A3A3A3"/>
<path d="M20.9999 4.04997V9.04997C20.9989 9.24739 20.9395 9.44011 20.8292 9.60383C20.7188 9.76755 20.5625 9.89495 20.3799 9.96997C20.2612 10.0259 20.1311 10.0533 19.9999 10.05C19.8683 10.0507 19.7378 10.0255 19.616 9.97574C19.4941 9.92597 19.3833 9.85265 19.2899 9.75997L17.4499 7.99997L12.6599 12.79C12.5669 12.8837 12.4563 12.9581 12.3345 13.0089C12.2126 13.0596 12.0819 13.0858 11.9499 13.0858C11.8179 13.0858 11.6872 13.0596 11.5653 13.0089C11.4435 12.9581 11.3329 12.8837 11.2399 12.79C11.1462 12.697 11.0718 12.5864 11.021 12.4645C10.9702 12.3427 10.9441 12.212 10.9441 12.08C10.9441 11.948 10.9702 11.8172 11.021 11.6954C11.0718 11.5735 11.1462 11.4629 11.2399 11.37L15.9999 6.54997L14.2399 4.75997C14.0961 4.62272 13.9964 4.44571 13.9537 4.25156C13.9109 4.05741 13.927 3.85493 13.9999 3.66997C14.0796 3.47419 14.2194 3.30872 14.3991 3.19733C14.5787 3.08594 14.7891 3.03434 14.9999 3.04997H19.9999C20.0826 3.03559 20.1672 3.03559 20.2499 3.04997C20.2961 3.04106 20.3436 3.04106 20.3899 3.04997C20.5099 3.09723 20.6188 3.16868 20.71 3.25986C20.8012 3.35103 20.8726 3.46 20.9199 3.57997C20.9288 3.62621 20.9288 3.67372 20.9199 3.71997C20.9721 3.82215 20.9995 3.93521 20.9999 4.04997Z" fill="#A3A3A3"/>
<path d="M6.52566 18V12.9091H7.14213V15.1761H9.85662V12.9091H10.4731V18H9.85662V15.723H7.14213V18H6.52566Z" fill="#A3A3A3"/>
</svg>
